<svg width="24" height="24" viewBox="0 0 24 24" fill="none" xmlns="http://www.w3.org/2000/svg">
<path fill-rule="evenodd" clip-rule="evenodd" d="M9.5 5.25C9.5 4.83579 9.16421 4.5 8.75 4.5C8.33579 4.5 8 4.83579 8 5.25V6.75H7.25C5.73122 6.75 4.5 7.98122 4.5 9.5V17.5C4.5 18.6046 5.39543 19.5 6.5 19.5H12.1692C12.5846 19.5 12.8346 19.0082 12.6608 18.6309C12.3971 18.0586 12.25 17.4215 12.25 16.75C12.25 14.2647 14.2647 12.25 16.75 12.25C17.4215 12.25 18.0586 12.3971 18.6309 12.6608C19.0082 12.8346 19.5 12.5846 19.5 12.1692V9.5C19.5 7.98122 18.2688 6.75 16.75 6.75H16V5.25C16 4.83579 15.6642 4.5 15.25 4.5C14.8358 4.5 14.5 4.83579 14.5 5.25V6.75H9.5V5.25ZM16.75 8.25C17.4404 8.25 18 8.80964 18 9.5V10H6V9.5C6 8.80964 6.55964 8.25 7.25 8.25H16.75Z" fill="#DDE2FF"/>
<path d="M19.2803 16.2803C19.5732 15.9874 19.5732 15.5126 19.2803 15.2197C18.9874 14.9268 18.5126 14.9268 18.2197 15.2197L15.75 17.6893L15.0303 16.9697C14.7374 16.6768 14.2626 16.6768 13.9697 16.9697C13.6768 17.2626 13.6768 17.7374 13.9697 18.0303L15.2197 19.2803C15.5126 19.5732 15.9874 19.5732 16.2803 19.2803L19.2803 16.2803Z" fill="#DDE2FF"/>
</svg>
