<svg width="24" height="24" viewBox="0 0 24 24" fill="none" xmlns="http://www.w3.org/2000/svg">
<path d="M8.10299 5.4312C8.40263 4.85831 8.99058 4.5 9.63098 4.5H14.369C15.0094 4.5 15.5974 4.85831 15.897 5.4312L19.2967 11.9312C19.9063 13.0967 19.0716 14.5 17.7687 14.5H12.741V18H14.9638C15.3731 18 15.7048 18.3358 15.7048 18.75C15.7048 19.1642 15.3731 19.5 14.9638 19.5H9.03615C8.62693 19.5 8.29519 19.1642 8.29519 18.75C8.29519 18.3358 8.62693 18 9.03615 18H11.259V14.5H6.23128C4.92842 14.5 4.0937 13.0967 4.70329 11.9312L8.10299 5.4312Z" fill="#DDE2FF"/>
</svg>
