<svg width="24" height="24" viewBox="0 0 24 24" fill="none" xmlns="http://www.w3.org/2000/svg">
<path d="M12.1692 19.5C12.5846 19.5 12.8346 19.0082 12.6608 18.6309C12.3971 18.0586 12.25 17.4215 12.25 16.75C12.25 14.2647 14.2647 12.25 16.75 12.25C16.9537 12.25 17.1543 12.2635 17.3509 12.2898C17.6808 12.3338 18.0011 12.094 18.001 11.7611L18.0004 10.3276C18.0001 9.59867 17.7104 8.89967 17.1949 8.38423L14.1161 5.30546C13.6004 4.78973 12.9009 4.5 12.1716 4.5H8.75C7.23122 4.5 6 5.73122 6 7.25V16.75C6 18.2688 7.23121 19.5 8.75 19.5H12.1692Z" fill="#DDE2FF"/>
<path d="M14 16.75C14 16.3358 14.3358 16 14.75 16H16V14.75C16 14.3358 16.3358 14 16.75 14C17.1642 14 17.5 14.3358 17.5 14.75V16H18.75C19.1642 16 19.5 16.3358 19.5 16.75C19.5 17.1642 19.1642 17.5 18.75 17.5H17.5V18.75C17.5 19.1642 17.1642 19.5 16.75 19.5C16.3358 19.5 16 19.1642 16 18.75V17.5H14.75C14.3358 17.5 14 17.1642 14 16.75Z" fill="#DDE2FF"/>
</svg>
