<svg width="24" height="24" viewBox="0 0 24 24" fill="none" xmlns="http://www.w3.org/2000/svg">
<path d="M12.3492 6.00164C11.9554 5.98861 11.563 6.05327 11.1942 6.19192C10.8255 6.33056 10.4876 6.54049 10.2 6.8097C9.91235 7.07891 9.68055 7.40214 9.51784 7.76094C9.35512 8.11973 9.26467 8.50706 9.25164 8.90081C9.23861 9.29456 9.30327 9.68702 9.44192 10.0558C9.58056 10.4245 9.79049 10.7624 10.0597 11.05C10.3289 11.3377 10.6521 11.5694 11.0109 11.7322C11.3697 11.8949 11.7571 11.9853 12.1508 11.9984C12.5446 12.0114 12.937 11.9467 13.3058 11.8081C13.6745 11.6694 14.0124 11.4595 14.3 11.1903C14.5877 10.9211 14.8194 10.5979 14.9822 10.2391C15.1449 9.88027 15.2353 9.49294 15.2484 9.09919C15.2614 8.70544 15.1967 8.31298 15.0581 7.94422C14.9194 7.57546 14.7095 7.23761 14.4403 6.94998C14.1711 6.66235 13.8479 6.43055 13.4891 6.26784C13.1303 6.10512 12.7429 6.01467 12.3492 6.00164Z" fill="#DDE2FF"/>
<path d="M12.25 13.5C11.1387 13.5 10.0522 13.8288 9.12793 14.445C8.20362 15.0612 7.48296 15.9372 7.05732 16.9624C6.96124 17.1939 6.9871 17.458 7.12623 17.6664C7.26537 17.8748 7.49941 18 7.75 18L16.75 18C17.0006 18 17.2346 17.8748 17.3738 17.6664C17.5129 17.458 17.5388 17.1939 17.4427 16.9624C17.0171 15.9372 16.2964 15.0612 15.3721 14.445C14.4478 13.8288 13.3613 13.5 12.25 13.5Z" fill="#DDE2FF"/>
</svg>
