<svg width="24" height="24" viewBox="0 0 24 24" fill="none" xmlns="http://www.w3.org/2000/svg">
<path d="M11.75 8.00002C11.75 7.69668 11.5673 7.4232 11.287 7.30711C11.0068 7.19103 10.6842 7.25519 10.4697 7.46969L6.47156 11.4678C6.46541 11.4739 6.45936 11.4801 6.45342 11.4864C6.32728 11.6206 6.25 11.8013 6.25 12C6.25 12.1009 6.26992 12.1971 6.30604 12.285C6.34265 12.3742 6.39719 12.4579 6.46967 12.5304L10.4697 16.5304C10.6842 16.7449 11.0068 16.809 11.287 16.6929C11.5673 16.5768 11.75 16.3034 11.75 16V12.75H17.25C17.6642 12.75 18 12.4142 18 12C18 11.5858 17.6642 11.25 17.25 11.25H11.75V8.00002Z" fill="#797B8C"/>
</svg>
