<svg width="24" height="24" viewBox="0 0 24 24" fill="none" xmlns="http://www.w3.org/2000/svg">
<path d="M17.25 6.75C17.25 6.33579 16.9142 6 16.5 6H11.25C10.8358 6 10.5 6.33579 10.5 6.75V7.27513C10.5 7.54034 10.6054 7.7947 10.7929 7.98223L14.1036 11.2929C14.4941 11.6834 14.4941 12.3166 14.1036 12.7071L10.7929 16.0178C10.6054 16.2053 10.5 16.4597 10.5 16.7249V17.25C10.5 17.6642 10.8358 18 11.25 18H16.5C16.9142 18 17.25 17.6642 17.25 17.25V6.75Z" fill="#797B8C"/>
<path d="M10.1893 11.25L9.21967 10.2803C8.92678 9.98744 8.92678 9.51256 9.21967 9.21967C9.51256 8.92678 9.98744 8.92678 10.2803 9.21967L12.5303 11.4697C12.6022 11.5416 12.6565 11.6245 12.6931 11.7129C12.7298 11.8013 12.75 11.8983 12.75 12C12.75 12.1017 12.7298 12.1987 12.6931 12.2871C12.6565 12.3755 12.6022 12.4584 12.5303 12.5303L10.2803 14.7803C9.98744 15.0732 9.51256 15.0732 9.21967 14.7803C8.92678 14.4874 8.92678 14.0126 9.21967 13.7197L10.1893 12.75H6C5.58579 12.75 5.25 12.4142 5.25 12C5.25 11.5858 5.58579 11.25 6 11.25H10.1893Z" fill="#797B8C"/>
</svg>
