<svg width="24" height="24" viewBox="0 0 24 24" fill="none" xmlns="http://www.w3.org/2000/svg">
<path d="M13.6085 5.05092C12.6624 4.31506 11.3376 4.31506 10.3915 5.05092L5.51147 8.84648C4.87328 9.34285 4.5 10.1061 4.5 10.9146V16.88C4.5 18.327 5.67301 19.5 7.12 19.5H9.25C9.94036 19.5 10.5 18.9403 10.5 18.25V15.6487C10.5 15.4554 10.5337 15.349 10.5687 15.2929C10.6946 15.091 10.8628 14.917 11.063 14.7835C11.3402 14.5987 11.6663 14.5 12 14.5C12.3337 14.5 12.6598 14.5987 12.937 14.7835C13.1372 14.917 13.3054 15.091 13.4313 15.2929C13.4663 15.349 13.5 15.4554 13.5 15.6487V18.25C13.5 18.9403 14.0596 19.5 14.75 19.5H16.88C18.327 19.5 19.5 18.327 19.5 16.88V10.9146C19.5 10.1061 19.1267 9.34285 18.4885 8.84648L13.6085 5.05092Z" fill="#797B8C"/>
</svg>
