<svg width="24" height="24" viewBox="0 0 24 24" fill="none" xmlns="http://www.w3.org/2000/svg">
<path fill-rule="evenodd" clip-rule="evenodd" d="M13.5303 7.46969C13.3158 7.25519 12.9932 7.19103 12.713 7.30711C12.4327 7.4232 12.25 7.69668 12.25 8.00002V11.25H6.75C6.33579 11.25 6 11.5858 6 12C6 12.4142 6.33579 12.75 6.75 12.75H12.25V16C12.25 16.3034 12.4327 16.5768 12.713 16.6929C12.9932 16.809 13.3158 16.7449 13.5303 16.5304L17.5303 12.5304C17.5395 12.5212 17.5484 12.5118 17.5571 12.5022C17.677 12.3692 17.75 12.1932 17.75 12C17.75 11.792 17.6653 11.6037 17.5285 11.4678M17.5285 11.4678L13.5303 7.46969Z" fill="#797B8C"/>
</svg>
